<?xml version="1.0" standalone="no"?><!DOCTYPE svg PUBLIC "-//W3C//DTD SVG 1.1//EN" "http://www.w3.org/Graphics/SVG/1.1/DTD/svg11.dtd"><svg t="1581906857674" class="icon" viewBox="0 0 1024 1024" version="1.1" xmlns="http://www.w3.org/2000/svg" p-id="8049" xmlns:xlink="http://www.w3.org/1999/xlink" width="200" height="200"><defs><style type="text/css"></style></defs><path d="M402.1 848H64V64h784v336.6h-64V128H128v656h274.1z" fill="#727272" p-id="8050"></path><path d="M590.4 256.4L518 426.3l40.3 40.3L652 256.4h-61.6z m-132.3 320h-1.4c-1.9-12.5-4.9-23.5-8.9-32.9l-4.5-10.8-25.6-25.6 10.5-10.5-100.3-240.2h-63.8L421.6 617H457c4.9-17.3 11.9-34.1 20.7-49.8L464 553.4c-2.8 7.8-4.8 15.5-5.9 23z" fill="#E6C37C" p-id="8051"></path><path d="M960 714v-64h-78.6c-5.1-31.9-17.7-61.2-35.8-86.3l55.6-55.6-45.2-45.3-55.6 55.6c-25.1-18.2-54.5-30.8-86.3-35.9V404h-64v78.6c-31.9 5.1-61.2 17.7-86.3 35.8l-55.6-55.6-45.4 45.2 55.6 55.6c-18.2 25.1-30.8 54.5-35.9 86.3H404v64h78.6c5.1 31.9 17.7 61.2 35.8 86.3l-55.6 55.6L508 901l55.6-55.6c25.1 18.2 54.5 30.8 86.3 35.9V960h64v-78.6c31.9-5.1 61.2-17.7 86.3-35.8l55.6 55.6L901 856l-55.6-55.6c18.2-25.1 30.8-54.5 35.9-86.3H960z m-140-33c0 76.1-61.9 138-137.9 138s-137.9-61.9-137.9-138 61.9-138 137.9-138S820 604.9 820 681z" fill="#497CAD" p-id="8052"></path></svg>