<?xml version="1.0" standalone="no"?><!DOCTYPE svg PUBLIC "-//W3C//DTD SVG 1.1//EN" "http://www.w3.org/Graphics/SVG/1.1/DTD/svg11.dtd"><svg t="1582179656954" class="icon" viewBox="0 0 1024 1024" version="1.1" xmlns="http://www.w3.org/2000/svg" p-id="713" xmlns:xlink="http://www.w3.org/1999/xlink" width="200" height="200"><defs><style type="text/css"></style></defs><path d="M511.977999 128.720663c-211.663724 0-383.278313 171.598216-383.278313 383.278313s171.614589 383.279337 383.278313 383.279337c211.685213 0 383.28957-171.59924 383.28957-383.279337S723.664236 128.720663 511.977999 128.720663zM738.052944 688.881546c0 2.333138-0.280386 4.599761-0.796132 6.776334-0.035816 2.082428-0.072655 2.724041-0.106424 0.462534-3.234671 12.737092-14.806217 22.168905-28.582989 22.168905L315.390645 718.28932c-16.281825 0-29.486568-13.173021-29.486568-29.407774l0-9.80532c0-2.142803 0.23536-4.229325 0.672312-6.242168 1.549286-44.340881 35.697013-55.084573 35.697013-55.084573l101.329826-33.355689 34.279734-18.437931-0.23843-37.95545c0 0-25.608238-12.205996-25.660426-42.669822-1.122567-0.094144-2.307555-0.187265-3.701299-0.35918-18.268062-2.323928-33.92567-30.823006-35.267225-50.161447-1.341554-19.348674 14.535041-20.992103 14.535041-20.992103l13.849426 4.559852c0 0-6.040576-17.96107-6.040576-68.028373 0-23.003923 6.16542-34.268478 18.444071-41.614793 0-0.083911-0.030699-0.177032-0.030699-0.280386 0 0-18.413372-43.470047 79.994915-44.343951 94.843088 0.873903 94.614891 81.721233 94.614891 81.721233l-0.313132 29.673833-2.817162 38.874379c1.007957-0.379647 13.390985-0.561795 14.648628-0.561795 11.051707 0 10.168594 21.895683 10.168594 21.895683s-13.319353 46.932915-31.586392 49.256844c-1.600451 0.192382-2.942005 0.306992-4.199649 0.38988-3.306302 24.994254-28.717042 41.85834-28.717042 41.85834l0 39.739073 33.614585 17.476023 104.760972 33.697473c0 0 30.191626 10.021238 32.894178 52.570309 0.788969 2.654456 1.218758 5.462408 1.218758 8.372691L738.054991 688.881546z" p-id="714"></path></svg>