<?xml version="1.0" standalone="no"?><!DOCTYPE svg PUBLIC "-//W3C//DTD SVG 1.1//EN" "http://www.w3.org/Graphics/SVG/1.1/DTD/svg11.dtd"><svg t="1558169184008" class="icon" style="" viewBox="0 0 1024 1024" version="1.1" xmlns="http://www.w3.org/2000/svg" p-id="6542" xmlns:xlink="http://www.w3.org/1999/xlink" width="200" height="200"><defs><style type="text/css"></style></defs><path d="M512 0C229.517241 0 0 229.517241 0 512S229.517241 1024 512 1024 1024 794.482759 1024 512 794.482759 0 512 0z m17.655172 35.310345c247.172414 10.593103 448.441379 211.862069 459.034483 459.034483H529.655172V35.310345z m-17.655172 953.37931C250.703448 988.689655 35.310345 773.296552 35.310345 512 35.310345 257.765517 240.110345 45.903448 494.344828 35.310345v469.627586c-3.531034 7.062069-3.531034 14.124138 3.531034 21.186207l335.448276 335.448276C748.57931 939.255172 635.586207 988.689655 512 988.689655z m346.041379-151.834483L550.841379 529.655172H988.689655c-7.062069 120.055172-52.965517 225.986207-130.648276 307.2z" fill="" p-id="6543"></path></svg>