<?xml version="1.0" standalone="no"?><!DOCTYPE svg PUBLIC "-//W3C//DTD SVG 1.1//EN" "http://www.w3.org/Graphics/SVG/1.1/DTD/svg11.dtd"><svg t="1558169457266" class="icon" style="" viewBox="0 0 1024 1024" version="1.1" xmlns="http://www.w3.org/2000/svg" p-id="7622" xmlns:xlink="http://www.w3.org/1999/xlink" width="200" height="200"><defs><style type="text/css"></style></defs><path d="M684.785763 404.031986c-150.555971 0-272.553513 122.021078-272.553513 272.54328 0 150.505829 122.037451 272.526907 272.553513 272.526907 150.501736 0 272.51872-122.021078 272.51872-272.526907C957.304484 526.054087 835.288522 404.031986 684.785763 404.031986L684.785763 404.031986zM745.602897 639.72294c4.571109 0.837064 8.944719 1.2689 12.795421 1.2689l41.402969 0c3.939729 0 7.388271 1.488911 10.258645 4.91801 2.904143 3.306302 4.305049 6.476505 4.305049 9.797134l0 29.759791c0 5.916756-4.16281 8.656147-12.114922 8.656147l-71.774697 0c-3.170203 0-6.197142 0.837064-9.156544 2.611477-2.869351 1.538029-4.148483 4.129041-4.148483 7.30436 0 3.457752 0.067538 6.769171 0.490164 10.477632 0.421602 3.747347 0.577145 6.916527 0.577145 9.229199 0 4.932336 4.272303 6.691399 12.237719 4.932336l70.637804 0c8.108678 0 12.114922 3.723811 12.114922 11.252275l0 27.368324c0 8.108678-5.89936 12.258185-17.174148 12.258185l-15.82236 0c-6.339382 0-12.884448 0.278339-19.923772 0.557702-6.755868 0.568958-13.236466 0.701988-18.869766 0.701988l-10.962679 0c-7.107885 0-10.835789 4.167926-10.835789 12.524245l0 40.957831 0 8.524141c0 4.290723-3.306302 6.329149-9.787924 6.329149l-38.98285 0c-10.488889 0-15.759939-4.50664-15.759939-13.579273 0-3.453658 0.298805-10.41521 0.651846-21.269419 0.539282-10.680247 0.25992-18.072611-0.597611-22.231327 0-4.080945-0.469698-6.818289-1.257643-8.087189-0.700965-1.191128-3.02694-1.769296-7.250124-1.769296L573.689503 782.215258c-10.536984 0-15.82236-5.339612-15.82236-16.175401 0-2.332115-0.231267-5.492084-1.14201-9.357112-0.857531-3.590781-0.857531-7.397481 0-11.688203 0.911766-4.079922 2.12029-7.807826 3.678786-11.257391 1.681292-3.170203 4.849448-4.428869 9.626241-3.585665l14.56881 0 24.350594 0 24.209378 0 12.236696 0 6.060019 0c1.680269 0 2.38021-2.042519 2.38021-6.338359l0-23.49511c0-4.167926-4.848425-6.196119-14.426571-6.196119l-70.497611 0c-3.311419 0-6.058996-0.148379-8.508791-0.500397-2.536776-0.410346-3.678786-2.737344-3.678786-6.754844l0-15.126512c0-6.476505-0.402159-11.404748-1.205455-14.843056-1.665942-4.928243-0.402159-9.077749 3.53757-12.237719 4.095271-3.467985 9.414417-4.937452 15.82236-4.937452 6.54916 0.837064 13.657045 0.99977 21.461801 0.568958 7.598049-0.436952 13.583366-0.568958 17.59575-0.568958l14.426571 0c4.863774 0 6.545066-1.759063 4.863774-4.927219-1.556449-1.821485-6.40692-8.019651-14.426571-18.576077-8.244778-11.04659-16.679891-22.028713-25.541723-33.565467-10.570753-14.136975-22.808472-29.421077-36.534078-45.886073-5.633301-9.06854-4.427846-16.607236 3.678786-22.230304 3.987824-2.532683 8.225335-5.629207 12.653181-9.499351 4.502547-3.659343 9.631358-7.17747 15.338337-10.41521 8.017604-4.990664 15.684214-0.509606 23.0029 13.501502 2.537799 3.457752 7.123234 9.356089 14.07353 18.095124 6.898107 8.789177 14.005992 17.788132 21.182438 27.850301 7.176446 10.072403 14.146185 18.87386 20.692275 26.541493 6.548136 7.951089 10.066263 12.81077 11.04659 14.426571 1.543146 3.311419 4.501524 5.339612 8.930393 6.197142 4.516874 0.843204 7.686053-0.568958 9.224082-3.737114 0.715291-1.75804 4.079922-6.819313 10.293437-15.617699 6.039553-8.512884 12.800537-18.158568 20.045545-28.994358 7.317663-10.763135 14.195304-20.766976 20.62269-30.470989 6.617721-9.429767 10.624988-15.484669 12.236696-17.885346 4.02671-5.829775 7.598049-9.489118 10.204409-11.116175 2.889817-1.675152 7.528464-1.179872 14.146185 1.210571 4.00829 1.606591 8.525164 4.075829 13.162788 7.30436 4.991688 3.390213 8.29799 5.928013 9.768481 7.608282 8.944719 9.155521 11.467169 16.96437 7.338129 23.440875-1.557472 2.610454-6.074346 8.788154-13.250792 18.718317-7.582699 9.845229-15.268752 20.323884-23.791869 31.596625-8.645914 11.114129-16.162098 21.533432-23.073508 31.600719-6.882757 9.904581-10.698666 15.832594-11.658528 17.302061C740.386082 636.264165 741.24259 638.733403 745.602897 639.72294L745.602897 639.72294zM745.602897 639.72294" p-id="7623"></path><path d="M399.379525 62.365396c-185.369871 0-335.592244 74.532507-335.592244 166.485779 0 91.932806 150.222373 166.472476 335.592244 166.472476 185.321776 0 335.559499-74.524321 335.559499-166.472476C734.939023 136.897903 584.701301 62.365396 399.379525 62.365396L399.379525 62.365396 399.379525 62.365396zM399.379525 62.365396" p-id="7624"></path><path d="M505.13822 438.038498c-33.283034 5.481851-68.7672 8.578376-105.758696 8.578376-159.725818 0-293.106618-55.394634-327.014892-129.526005-5.447059 11.883655-8.577353 24.243147-8.577353 36.945447 0 91.932806 150.222373 166.490895 335.592244 166.490895 9.018398 0 17.842367-0.328481 26.66429-0.680499C446.803627 487.652476 473.658252 459.798081 505.13822 438.038498L505.13822 438.038498 505.13822 438.038498zM505.13822 438.038498" p-id="7625"></path><path d="M725.734384 392.172891c5.809309-12.237719 9.169847-24.968671 9.169847-38.113039 0-12.725836-3.114944-25.055652-8.577353-36.945447-12.041244 26.355251-36.902468 50.294476-70.864978 70.27146 4.796236-0.234337 9.474792-0.743944 14.304797-0.743944C688.915827 386.641921 707.633121 388.620995 725.734384 392.172891L725.734384 392.172891 725.734384 392.172891zM725.734384 392.172891" p-id="7626"></path><path d="M399.379525 556.165896c-159.725818 0-293.106618-55.399751-327.014892-129.541355-5.441942 11.894911-8.577353 24.248264-8.577353 36.945447 0 89.327468 141.924383 162.014954 319.962266 166.094876 4.25593-25.874297 11.849886-50.602492 22.477944-73.670883C403.94961 556.032866 401.672754 556.165896 399.379525 556.165896L399.379525 556.165896 399.379525 556.165896zM399.379525 556.165896" p-id="7627"></path><path d="M380.299981 665.278989c-151.130046-4.206812-275.373745-57.96211-307.935348-129.114636-5.441942 11.904121-8.577353 24.243147-8.577353 36.95568 0 89.821725 143.536091 162.840762 323.007625 166.147064-4.461615-20.217461-6.985088-41.163515-6.985088-62.72253C379.809817 672.764474 380.143415 669.050895 380.299981 665.278989L380.299981 665.278989 380.299981 665.278989zM380.299981 665.278989" p-id="7628"></path><path d="M72.364633 645.718491c-5.447059 11.893888-8.577353 24.234961-8.577353 36.936237 0 91.933829 150.222373 166.496012 335.592244 166.496012 12.484336 0 24.739451-0.398066 36.853349-1.057075-16.211217-22.078855-29.217439-46.650483-38.724976-72.898287C238.620168 774.755356 106.136807 719.551056 72.364633 645.718491L72.364633 645.718491 72.364633 645.718491zM72.364633 645.718491" p-id="7629"></path><path d="M465.399147 881.422747c-21.37789 2.125407-43.38409 3.360538-66.019623 3.360538-159.725818 0-293.106618-55.399751-327.014892-129.540332-5.447059 11.899004-8.577353 24.258497-8.577353 36.95568 0 91.943039 150.222373 166.484755 335.592244 166.484755 54.640458 0 106.072851-6.607488 151.678538-18.10945C518.897595 926.08904 489.989195 906.029168 465.399147 881.422747L465.399147 881.422747 465.399147 881.422747zM465.399147 881.422747" p-id="7630"></path></svg>