<?xml version="1.0" standalone="no"?><!DOCTYPE svg PUBLIC "-//W3C//DTD SVG 1.1//EN" "http://www.w3.org/Graphics/SVG/1.1/DTD/svg11.dtd"><svg t="1558168885814" class="icon" style="" viewBox="0 0 1024 1024" version="1.1" xmlns="http://www.w3.org/2000/svg" p-id="4474" xmlns:xlink="http://www.w3.org/1999/xlink" width="200" height="200"><defs><style type="text/css"></style></defs><path d="M338.707692 228.430769h346.584616c17.723077 0 31.507692-13.784615 31.507692-31.507692V133.907692c0-51.2-43.323077-94.523077-94.523077-94.523077H401.723077c-51.2 0-94.523077 43.323077-94.523077 94.523077V196.923077c0 17.723077 13.784615 31.507692 31.507692 31.507692zM858.584615 118.153846H827.076923c-9.846154 0-15.753846 5.907692-15.753846 15.753846V196.923077c0 68.923077-57.107692 126.030769-126.030769 126.030769H338.707692c-68.923077 0-126.030769-57.107692-126.030769-126.030769V133.907692c0-9.846154-5.907692-15.753846-15.753846-15.753846H165.415385c-51.2 0-94.523077 43.323077-94.523077 94.523077v677.415385c0 51.2 43.323077 94.523077 94.523077 94.523077h693.16923c51.2 0 94.523077-43.323077 94.523077-94.523077V212.676923c0-51.2-43.323077-94.523077-94.523077-94.523077z m-120.123077 750.276923l-19.692307 19.692308c-5.907692 5.907692-13.784615 5.907692-19.692308 0L571.076923 760.123077c-37.415385 25.6-82.707692 39.384615-131.938461 31.507692-82.707692-11.815385-147.692308-80.738462-155.569231-163.446154-11.815385-114.215385 84.676923-210.707692 198.892307-198.892307 84.676923 7.876923 151.630769 72.861538 163.446154 155.56923 7.876923 49.230769-5.907692 96.492308-31.507692 131.938462l128 128c1.969231 7.876923 1.969231 15.753846-3.938462 23.630769z m-275.692307-380.061538c-68.923077 0-124.061538 57.107692-124.061539 124.061538 0 68.923077 55.138462 124.061538 124.061539 124.061539s124.061538-55.138462 124.061538-124.061539-55.138462-124.061538-124.061538-124.061538z" p-id="4475"></path></svg>