<?xml version="1.0" standalone="no"?><!DOCTYPE svg PUBLIC "-//W3C//DTD SVG 1.1//EN" "http://www.w3.org/Graphics/SVG/1.1/DTD/svg11.dtd"><svg t="1558168967119" class="icon" style="" viewBox="0 0 1024 1024" version="1.1" xmlns="http://www.w3.org/2000/svg" p-id="4646" xmlns:xlink="http://www.w3.org/1999/xlink" width="200" height="200"><defs><style type="text/css"></style></defs><path d="M884.828 296.434l-132.689-132.688c-9.967-9.951-23.025-14.93-36.078-14.93-13.047 0-26.117 4.976-36.069 14.93-28.371 28.37-10.831 56.11-10.831 56.11s17.43 45.021-9.299 45.021l-60.69-1.3c-32.227-4.484-60.118 21.31-60.118 68.932 0 46.245 30.314 72.867 60.118 68.868l60.69-1.235c26.731 0 9.299 44.991 9.299 44.991s-16.485 28.822 10.831 56.141c19.914 19.914 52.215 19.906 72.149 0l132.69-132.691c9.559-9.566 14.932-22.538 14.932-36.066-0.002-13.532-5.374-26.503-14.934-36.081z" p-id="4647"></path><path d="M279.534 203.835c7.501 4.962 15.158 10.618 22.962 16.964 7.817 6.347 14.843 13.66 21.090 21.936 3.124 4.412 6.874 9.377 11.249 14.896 4.372 5.516 8.433 10.225 12.181 15.744 3.94 5.461 8.948 7.524 12.88 16.256h144.074c4.16-13.099 10.43-24.766 18.767-35.052 17.453-21.535 42.053-32.623 69.274-32.623 0.003 0 0.007 0 0.011 0 3.338 0 6.718 0.225 10.081 0.593l6.548 0.159c4.087-3.964 9.118-7.87 15.085-11.739-2.221-15.612-0.611-34.229 9.548-52.901-3.842-0.791-7.264-0.992-10.256-0.585-4.061 0.55-8.129 1.523-12.181 2.9-4.061 1.38-8.281 2.895-12.654 4.553-4.372 1.653-9.689 2.484-15.93 2.484-6.254 0-11.401-0.966-15.466-2.894-4.061-1.935-7.817-4.278-11.249-7.037-3.431-2.758-7.025-5.652-10.773-8.691-3.753-3.035-8.749-5.379-15.001-7.037-12.494-4.412-22.495-5.238-29.987-2.48-7.498 2.757-14.994 7.172-22.495 13.239-6.249 5.523-11.246 9.383-14.997 11.587-1.872 1.104-3.437 1.658-4.685 1.658-3.748-1.658-7.188-3.589-10.309-5.797-3.124-1.649-6.093-3.449-8.901-5.382-2.812-1.927-5.47-4.268-7.966-7.033-5.001-4.412-12.501-7.309-22.498-8.691-9.997-1.377-19.055 0.14-27.175 4.551-10.625 6.074-18.126 11.172-22.498 15.314-4.372 4.134-10.932 7.033-19.682 8.691-4.993 1.1-10.461 0.825-16.402-0.835-5.937-1.653-12.026-3.308-18.271-4.961-6.243-1.661-12.181-2.758-17.809-3.312-5.62-0.554-10.618 0.555-14.998 3.312-8.741 6.069-11.557 13.383-8.433 21.93 3.13 8.545 8.75 15.31 16.871 20.278z" p-id="4648"></path><path d="M747.578 551.622c-9.981 3.632-20.589 5.627-31.523 5.627-24.59 0-47.705-9.572-65.085-26.954-30.237-30.237-30.781-65.161-24.354-88.425l-24.671 0.502c-2.884 0.293-5.793 0.443-8.679 0.443-26.032 0-51.129-12.017-68.854-32.97-17.271-20.416-26.401-47.631-26.401-77.808 0-1.263 0.102-4.202 0.132-4.202h-137.924c-7.040 13.099-15.060 24.287-24.063 34.012-8 9.376-18 19.348-30.004 30.656-11.997 11.307-25.427 23.122-40.285 35.813-17.147 14.342-33.004 30.529-47.572 48.738-14.573 18.208-26.715 38.163-36.431 59.952-9.716 21.799-16.43 45.090-20.143 69.918-3.713 24.831-2.999 50.747 2.141 77.786 4.569 24.273 14 48.689 28.287 73.243 14.285 24.554 33.566 46.757 57.85 66.615 24.289 19.87 53.863 36.005 88.723 48.42 34.855 12.42 74.855 18.622 119.998 18.622 44.003 0 83.293-5.379 117.865-16.138 34.571-10.758 64.426-25.242 89.569-43.454 25.148-18.208 45.297-39.587 60.435-64.146 15.146-24.554 25.291-50.625 30.429-78.211 5.711-33.662 6.425-64.146 2.142-91.458-2.624-16.719-6.494-32.238-11.581-46.583zM514.889 735.565c-0.062 0-30.883 0.010-30.883 0.010 0 12.5-10.085 22.734-22.589 22.734-12.5 0-22.587-11.326-22.587-24.423h-56.163c-12.503 0-22.635-9.29-22.635-21.792 0-12.501 10.131-22.211 22.635-22.211l132.038 0.201c12.395-0.1 22.45-10.426 22.45-22.845 0-12.417-10.057-22.858-22.45-22.858h-105.815c-37.504 0-67.905-30.718-67.905-68.22 0-37.504 30.401-68.222 67.905-68.222h29.94c0.498-17.465 10.403-21.691 22.587-21.691 12.182 0 22.090 4.226 22.589 21.691h57.106c12.5 0 22.635 10.967 22.635 23.468s-10.133 23.468-22.635 23.468h-132.222c-12.483 0-22.635 9.964-22.635 22.443 0 12.483 10.154 22.54 22.635 22.54 0.062 0 105.937-0.038 105.999-0.038 37.331 0.199 67.536 30.494 67.536 67.872 0 37.38-30.205 67.674-67.536 67.873z" p-id="4649"></path></svg>